PathFileType	4	(X/Y/Z)	F:\MotionCapture\20160217\3\Generated_files\EMG_test01-Dynamic.trc
DataRate	CameraRate	NumFrames	NumMarkers	Units	OrigDataRate	OrigDataStartFrame	OrigNumFrames
120.00	120.00	       4	39	mm	120.00	263	       701
Frame#	Time	Top.Head			Front.Head			Rear.Head			R.Shoulder			R.Offset			R.Elbow			R.Wrist			L.Shoulder			L.Elbow			L.Wrist			R.ASIS			L.ASIS			V.Sacral			R.Thigh			R.Knee			R.Shank			R.Ankle			R.Heel			R.Toe			L.Thigh			L.Knee			L.Shank			L.Ankle			L.Heel			L.Toe			R1			R2			R3			R4			R5			R6			R7			L1			L2			L3			L4			L5			L6			L7			V_Mid_ASIS			V_Pelvis_Origin			V_R.Hip_JC			V_L.Hip_JC			V_R.Knee_JC			V_L.Knee_JC			V_R.Ankle_JC			V_L.Ankle_JC			V_Mid_Hip			V_Mid_Shoulder			V_R.Hand			V_L.Hand			V_R.Toe_Offset_Static			V_L.Toe_Offset_Static			V_R.Toe_Offset			V_L.Toe_Offset			
		X1	Y1	Z1	X2	Y2	Z2	X3	Y3	Z3	X4	Y4	Z4	X5	Y5	Z5	X6	Y6	Z6	X7	Y7	Z7	X8	Y8	Z8	X9	Y9	Z9	X10	Y10	Z10	X11	Y11	Z11	X12	Y12	Z12	X13	Y13	Z13	X14	Y14	Z14	X15	Y15	Z15	X16	Y16	Z16	X17	Y17	Z17	X18	Y18	Z18	X19	Y19	Z19	X20	Y20	Z20	X21	Y21	Z21	X22	Y22	Z22	X23	Y23	Z23	X24	Y24	Z24	X25	Y25	Z25	X26	Y26	Z26	X27	Y27	Z27	X28	Y28	Z28	X29	Y29	Z29	X30	Y30	Z30	X31	Y31	Z31	X32	Y32	Z32	X33	Y33	Z33	X34	Y34	Z34	X35	Y35	Z35	X36	Y36	Z36	X37	Y37	Z37	X38	Y38	Z38	X39	Y39	Z39	

263	2.183	-2253.63525	106.12303	1731.08960	-2133.81030	109.82906	1659.79419	-2355.12671	111.64374	1651.92395	-2281.33545	-86.62042	1421.95789	-2420.37744	184.92000	1287.25110	-2345.31689	-187.58534	1102.92383	-2246.17969	-188.53404	858.49005	-2263.38135	321.46899	1427.28381	-2285.96777	434.75876	1109.69946	-2161.76147	425.13812	880.42523	-2230.05566	-21.96367	948.76776	-2223.54810	266.96017	947.14667	-2450.54858	130.42578	952.51654	-2189.12842	30.12206	576.49237	-2250.43555	-8.23198	467.68759	-2260.37305	68.04239	233.61198	-2318.08618	-1.08264	69.82938	-2383.86938	61.14923	39.29490	-2172.30225	15.22031	39.15884	-2121.12524	267.62109	649.05121	-2197.55737	323.88330	478.18835	-2246.37891	247.99223	344.60065	-2482.69995	279.14645	187.03444	-2526.63550	205.04672	205.60260	-2393.35010	296.01501	75.89252	-2127.36499	34.32552	39.25106	-2166.90430	52.61586	44.11299	-2264.25244	90.26217	49.80737	-2338.92236	91.98836	37.87923	-2354.08691	18.08624	40.30379	-2280.39404	-10.53046	34.72159	-2213.68921	-28.78372	35.51020	-2360.33423	283.92743	42.91163	-2376.38232	262.72610	67.37997	-2426.75464	202.73251	130.89777	-2490.44678	183.52408	178.78265	-2519.04443	252.30096	192.69386	-2476.59033	294.87811	136.20699	-2432.21069	315.22604	96.50986																																																	-2510.66528	75.40682	1498.39465	
264	2.192	-2242.94092	105.97482	1731.74768	-2122.97583	110.29414	1660.69507	-2344.12451	111.12335	1652.62646	-2269.72900	-86.80598	1423.17041	-2409.83130	183.44913	1287.88049	-2329.78638	-190.05519	1103.74109	-2223.13867	-189.39249	862.70410	-2253.93945	320.69971	1427.68774	-2282.95532	437.02930	1111.44019	-2163.01001	429.03250	878.30933	-2219.46484	-22.62621	948.42108	-2213.35864	265.35580	949.15326	-2440.09521	130.31714	953.54871	-2183.72119	30.08037	574.86322	-2247.69287	-8.76280	467.06464	-2259.97583	67.76151	233.70540	-2317.77026	-1.21050	69.69483	-2384.20874	60.80619	39.99440	-2172.19922	15.06698	38.94353	-2105.39917	266.22754	654.15674	-2178.57227	322.74530	481.02966	-2224.17920	245.48790	345.34818	-2450.04175	273.34393	176.63687	-2497.13354	201.98804	194.23770	-2357.57544	294.61581	73.69427	-2127.28296	34.22896	39.19775	-2166.88232	52.57891	44.09606	-2263.95752	90.54409	49.64126	-2339.28711	92.07005	37.96826	-2354.39551	17.84259	40.87469	-2280.53442	-10.35859	34.87771	-2213.78589	-28.86239	35.56053	-2321.82153	283.78583	42.61840	-2338.24902	261.76730	65.14615	-2393.45947	200.70892	125.22359	-2459.47900	181.16454	169.33342	-2489.21411	249.81444	182.87659	-2442.73706	293.31268	128.69496	-2397.12622	313.21964	91.75022																																																	-2502.02441	75.36640	1498.48901	
265	2.200	-2231.73706	105.64977	1732.15869	-2111.54126	109.52926	1660.69080	-2333.20508	110.77919	1653.03381	-2258.12427	-87.34100	1424.22778	-2399.31592	181.87029	1288.21765	-2314.19238	-192.49263	1104.22803	-2200.26465	-189.26315	866.26788	-2244.64404	320.51019	1427.92957	-2277.19043	435.40671	1112.07336	-2164.67822	432.84348	876.19543	-2209.84424	-23.95968	948.55469	-2201.36841	263.33499	950.31250	-2429.50610	130.57007	954.21802	-2178.25269	28.68226	573.81866	-2244.39746	-8.88095	466.56494	-2257.10107	67.74604	233.27058	-2317.65576	-0.96300	69.70925	-2384.22485	61.02805	40.15552	-2172.09448	14.88743	38.82681	-2090.15137	264.18027	658.20532	-2159.56445	320.71237	483.34625	-2200.76855	243.05336	346.27362	-2419.30859	271.53720	168.57536	-2466.53589	199.42259	182.25296	-2321.06177	293.56409	71.21714	-2127.17920	34.12593	39.15553	-2166.78613	52.19865	43.81770	-2263.83667	90.51966	49.55447	-2339.40259	89.32504	37.01197	-2354.26758	18.07330	40.96141	-2280.52246	-10.23186	34.96790	-2213.72559	-28.91963	35.48413	-2282.96460	283.11813	41.84688	-2301.42480	260.44348	63.73864	-2359.47705	198.91624	119.11137	-2427.24048	178.98497	158.89841	-2457.03638	245.44814	170.80309	-2409.54468	290.70856	120.91969	-2361.50928	312.06290	87.70699																																																	-2270.32593	3.17750	0.72200	
266	2.208	-2221.32178	105.72266	1732.32886	-2101.12061	109.70473	1660.95630	-2322.53198	110.05265	1653.13367	-2246.67969	-87.86252	1424.84399	-2388.92236	180.53275	1288.39612	-2298.59863	-194.93970	1104.82715	-2177.31396	-189.66884	870.77325	-2235.08228	319.84793	1428.29407	-2271.95605	434.64490	1113.20459	-2165.36230	436.64267	874.12567	-2200.30151	-26.04802	947.59412	-2190.55396	261.97931	951.24042	-2418.62939	130.97075	954.25714	-2172.54468	28.51427	571.61615	-2240.96631	-8.63115	465.42728	-2255.62842	67.20160	232.84630	-2317.21021	-0.59442	69.55219	-2384.08960	60.93458	40.23083	-2172.07495	14.77786	38.72108	-2074.50293	262.07684	662.47638	-2141.17798	318.22186	485.50522	-2177.05762	240.37959	347.27396	-2387.93140	270.10498	159.99966	-2435.77661	196.72527	170.60481	-2282.37964	292.45712	69.67381	-2127.85010	34.68491	41.25513	-2166.61523	51.93435	43.56462	-2262.25830	90.46062	49.71321	-2342.13965	90.60847	39.07776	-2354.23145	18.25690	41.11186	-2280.41602	-10.16871	34.91042	-2213.74658	-28.92696	35.34145	-2244.38647	282.43988	41.80136	-2264.96338	259.82318	61.31644	-2325.88550	197.56567	113.17098	-2394.70752	176.56998	149.51643	-2424.97656	242.19928	158.88850	-2375.01489	288.99777	114.26894	-2325.27637	310.58630	83.33026																																																	-2368.52515	76.91487	25.69545	3689.73975	-1509.97925	-692.43658	-2484.21631	75.21201	1498.21887	
